<svg xmlns="http://www.w3.org/2000/svg" width="25.619" height="39.986" viewBox="0 0 25.619 39.986">
  <g id="chevron-arrow-down" transform="translate(107.142 -1.435) rotate(89)">
    <g id="Grupo_3" data-name="Grupo 3" transform="translate(0 82.226)">
      <path id="Caminho_19" data-name="Caminho 19" d="M38.617,85.07l-1.9-1.9a3.251,3.251,0,0,0-2.31-.939,3.111,3.111,0,0,0-2.285.939L19.778,95.5,7.439,83.166a3.111,3.111,0,0,0-2.285-.939,3.252,3.252,0,0,0-2.31.939L.965,85.07A3.151,3.151,0,0,0,0,87.38a3.018,3.018,0,0,0,.965,2.285l16.528,16.529a3.018,3.018,0,0,0,2.285.965,3.151,3.151,0,0,0,2.31-.965L38.617,89.665a3.11,3.11,0,0,0,.94-2.285A3.252,3.252,0,0,0,38.617,85.07Z" transform="translate(0 -82.226)" fill="#fff"/>
    </g>
  </g>
</svg>
