<svg xmlns="http://www.w3.org/2000/svg" width="19.736" height="12.44" viewBox="0 0 19.736 12.44">
  <g id="chevron-arrow-down" transform="translate(0 -82.226)">
    <g id="Grupo_3" data-name="Grupo 3" transform="translate(0 82.226)">
      <path id="Caminho_19" data-name="Caminho 19" d="M19.267,83.645l-.95-.95a1.622,1.622,0,0,0-1.152-.469,1.552,1.552,0,0,0-1.14.469L9.868,88.851,3.712,82.695a1.552,1.552,0,0,0-1.14-.469,1.622,1.622,0,0,0-1.153.469l-.937.95A1.572,1.572,0,0,0,0,84.8a1.506,1.506,0,0,0,.481,1.14l8.247,8.247a1.506,1.506,0,0,0,1.14.481,1.572,1.572,0,0,0,1.153-.481l8.247-8.247a1.552,1.552,0,0,0,.469-1.14A1.622,1.622,0,0,0,19.267,83.645Z" transform="translate(0 -82.226)" fill="#707070"/>
    </g>
  </g>
</svg>
