<svg id="shopping-cart" xmlns="http://www.w3.org/2000/svg" width="33.943" height="29.833" viewBox="0 0 33.943 29.833">
  <path id="Caminho_13" data-name="Caminho 13" d="M10.936,19.889H28.971a1,1,0,0,0,.956-.721L33.9,5.245a.994.994,0,0,0-.956-1.268H8.643L7.932.779A1,1,0,0,0,6.961,0H.994a.994.994,0,0,0,0,1.989H6.163l3.59,16.157a2.983,2.983,0,0,0,1.185,5.72H28.971a.994.994,0,1,0,0-1.989H10.939a.994.994,0,0,1,0-1.989ZM31.63,5.967,28.22,17.9H11.736L9.084,5.967Zm0,0" fill="#b5b5b5"/>
  <path id="Caminho_14" data-name="Caminho 14" d="M150,362.983A2.983,2.983,0,1,0,152.983,360,2.987,2.987,0,0,0,150,362.983Zm2.983-.994a.994.994,0,1,1-.994.994A1,1,0,0,1,152.983,361.989Zm0,0" transform="translate(-140.056 -336.134)" fill="#b5b5b5"/>
  <path id="Caminho_15" data-name="Caminho 15" d="M362,362.983A2.983,2.983,0,1,0,364.983,360,2.987,2.987,0,0,0,362,362.983Zm2.983-.994a.994.994,0,1,1-.994.994A1,1,0,0,1,364.983,361.989Zm0,0" transform="translate(-338.001 -336.134)" fill="#b5b5b5"/>
</svg>
