<svg xmlns="http://www.w3.org/2000/svg" width="19.77" height="24.341" viewBox="0 0 19.77 24.341">
  <g id="delete" transform="translate(0.003 0.001)">
    <path id="Caminho_52" data-name="Caminho 52" d="M222.969,154.7a.57.57,0,0,0-.57.57v10.774a.57.57,0,1,0,1.14,0V155.273A.57.57,0,0,0,222.969,154.7Zm0,0" transform="translate(-209.724 -145.885)" fill="#707070"/>
    <path id="Caminho_53" data-name="Caminho 53" d="M104.968,154.7a.57.57,0,0,0-.57.57v10.774a.57.57,0,1,0,1.14,0V155.273A.57.57,0,0,0,104.968,154.7Zm0,0" transform="translate(-98.45 -145.885)" fill="#707070"/>
    <path id="Caminho_54" data-name="Caminho 54" d="M1.616,7.245V21.29a3.145,3.145,0,0,0,.836,2.169,2.807,2.807,0,0,0,2.037.881H15.274a2.807,2.807,0,0,0,2.037-.881,3.145,3.145,0,0,0,.836-2.169V7.245a2.178,2.178,0,0,0-.559-4.282H14.67V2.25A2.239,2.239,0,0,0,12.413,0H7.351A2.239,2.239,0,0,0,5.093,2.25v.713H2.175a2.178,2.178,0,0,0-.559,4.282ZM15.274,23.2H4.489a1.805,1.805,0,0,1-1.733-1.91V7.3H17.007V21.29A1.805,1.805,0,0,1,15.274,23.2ZM6.233,2.25A1.1,1.1,0,0,1,7.351,1.139h5.062A1.1,1.1,0,0,1,13.53,2.25v.713h-7.3ZM2.175,4.1H17.589a1.026,1.026,0,1,1,0,2.052H2.175a1.026,1.026,0,1,1,0-2.052Zm0,0" transform="translate(0 0)" fill="#707070"/>
    <path id="Caminho_55" data-name="Caminho 55" d="M163.968,154.7a.57.57,0,0,0-.57.57v10.774a.57.57,0,0,0,1.14,0V155.273A.57.57,0,0,0,163.968,154.7Zm0,0" transform="translate(-154.087 -145.885)" fill="#707070"/>
  </g>
</svg>
