<svg id="language" xmlns="http://www.w3.org/2000/svg" width="28.583" height="28.584" viewBox="0 0 28.583 28.584">
  <path id="Caminho_126" data-name="Caminho 126" d="M25.957,6.051c-.218-.307-.444-.607-.686-.9A14.265,14.265,0,0,0,14.292,0h-.035l-.049,0a14.27,14.27,0,0,0-10.9,5.154q-.361.434-.686.9a14.242,14.242,0,0,0,0,16.481c.218.307.446.607.686.9a14.268,14.268,0,0,0,10.9,5.154l.049,0h.034a14.265,14.265,0,0,0,10.98-5.155c.24-.288.468-.589.686-.9a14.242,14.242,0,0,0,0-16.481ZM10.114,1.859A13.37,13.37,0,0,0,6.957,7.2a13.631,13.631,0,0,1-2.7-1.342A13.154,13.154,0,0,1,10.114,1.859Zm-6.543,4.9A15.053,15.053,0,0,0,6.623,8.3a22.779,22.779,0,0,0-.782,5.876H1.175A13.043,13.043,0,0,1,3.571,6.755ZM1.219,15.344H5.864a22.528,22.528,0,0,0,.758,4.945,14.967,14.967,0,0,0-3.051,1.54A13.03,13.03,0,0,1,1.219,15.344Zm3.044,7.379a13.713,13.713,0,0,1,2.693-1.34,13.358,13.358,0,0,0,3.159,5.342A13.151,13.151,0,0,1,4.263,22.722Zm9.443,4.646c-2.406-.33-4.483-2.8-5.661-6.352a21.675,21.675,0,0,1,5.661-.867Zm0-8.391a22.333,22.333,0,0,0-5.99.939,21.743,21.743,0,0,1-.678-4.572h6.667Zm0-4.807H7.013a22.136,22.136,0,0,1,.708-5.5,22.336,22.336,0,0,0,5.984.937v4.565Zm0-5.737a21.644,21.644,0,0,1-5.657-.866C9.225,4.015,11.3,1.545,13.705,1.215Zm13.7,5.737H22.674A22.767,22.767,0,0,0,21.9,8.319a15.043,15.043,0,0,0,3.114-1.563A13.045,13.045,0,0,1,27.407,14.171ZM24.323,5.86a13.688,13.688,0,0,1-2.758,1.363,13.333,13.333,0,0,0-3.2-5.4A13.155,13.155,0,0,1,24.323,5.86ZM14.878,1.224c2.38.368,4.43,2.833,5.594,6.362a21.68,21.68,0,0,1-5.594.848Zm0,8.383a22.373,22.373,0,0,0,5.92-.918,22.084,22.084,0,0,1,.7,5.483H14.878Zm0,5.737h6.6A21.832,21.832,0,0,1,20.8,19.9a22.375,22.375,0,0,0-5.925-.919V15.344Zm0,12.016V20.15a21.716,21.716,0,0,1,5.6.848C19.31,24.528,17.258,26.992,14.878,27.36Zm3.486-.6a13.323,13.323,0,0,0,3.2-5.4,13.7,13.7,0,0,1,2.753,1.361A13.159,13.159,0,0,1,18.364,26.761Zm6.648-4.931A15.006,15.006,0,0,0,21.9,20.266a22.52,22.52,0,0,0,.751-4.922h4.715A13.011,13.011,0,0,1,25.012,21.829Z" fill="#a7a7a7"/>
</svg>
