<svg xmlns="http://www.w3.org/2000/svg" width="135.759" height="172.195" viewBox="0 0 135.759 172.195">
  <g id="Camada_2" data-name="Camada 2" transform="translate(-0.002 0.014)">
    <g id="Layer_1" data-name="Layer 1" transform="translate(0.002 -0.014)">
      <path id="Caminho_73" data-name="Caminho 73" d="M28.632,84.363c-2.107.442-3.513,2.023-5.165,3.194a16.987,16.987,0,0,1-13.05,3.181C2.446,89.4-2.079,80.73,1.2,73c.606-1.428,1.142-2.536.312-4.226C-.93,63.721-.472,58.738,3.333,54.5c3.761-4.192,8.582-5.2,14.007-3.781a20.54,20.54,0,0,1,7.1,3.664c.921.689,1.862,1.358,2.837,1.961,1.337.824,2.949,1.615,4.327.843,1.618-.9-.658-2.442.06-3.7,6.179.062,9.882-2.341,11.963-8.556,2.746-8.294.38-16.5-1.012-24.706-2.517-1.274-.7,4.218-.489,6.3.5,4.832,1.222,9.654.551,14.517A14.722,14.722,0,0,1,41.6,45.085c-3.331,7.318-7.755,8.429-14.254,3.664-.723-.52-1.412-1.1-2.1-1.677-9.656-8.1-10.039-14.793-1.259-23.809,2.744-2.83,5.61-5.589,8.582-8.189,2.32-2.039,5.05-4.13,8.13-3.9,4.1.312,6.377-1.82,9.084-4.244A27.211,27.211,0,0,1,88.083,8.9c1.446,1.576,2.77,2.512,4.892,2.047a3.149,3.149,0,0,1,.767,0c7.677.26,23.528,15.177,24.28,22.842a11.3,11.3,0,0,1-2.289,7.919,30.867,30.867,0,0,1-9.674,8.611c-4.223,2.447-7.318,1.6-10.244-2.393C93.159,44.3,92.6,40.18,92.866,35.9c.26-4.08.8-8.14,1.131-12.223.1-1.149.637-2.426-.2-3.43-.928-.021-1.183.4-1.251.934-.739,5.831-1.716,11.641-1.56,17.549a18.293,18.293,0,0,0,3.677,10.7c2.312,3.121,5.308,4.577,8.97,4.008.991,1.456-1.313,2.817.112,3.685,1.345.819,3.053.244,4.372-.546,2.517-1.508,4.8-3.461,7.412-4.749,5.04-2.481,10.189-2.528,14.915.832,4.1,2.915,6.2,7.209,4.965,12.031-1.064,4.161-.676,7.825,0,11.963,1.581,9.765-7.706,16.735-17.547,13.687a16.1,16.1,0,0,1-5.75-2.991,13.109,13.109,0,0,0-7.407-3.381l-.681-.127c-.458-.094-.913-.185-1.373-.26-23.7-.26-47.4-.081-71.1-.088a4.9,4.9,0,0,0-1.82.414Q29.191,84.147,28.632,84.363Z" transform="translate(-0.002 0.014)" fill="#3c2417"/>
      <path id="Caminho_74" data-name="Caminho 74" d="M154.747,325.812c4.681.663,9.391,1.087,13.958,2.411a8.517,8.517,0,0,1,6.161,5.649c2.153,5.87,4.6,11.648,7.2,17.333,1.147,2.5.5,3.5-1.82,4.507-15.734,6.848-32.217,8.7-49.152,7.461A92.876,92.876,0,0,1,99.949,355.7c-2.393-1.058-2.861-2.081-1.732-4.523,2.6-5.682,5.069-11.443,7.209-17.323a8.591,8.591,0,0,1,6.161-5.641,78,78,0,0,1,13.17-2.369c5.693-.374,5.014-.447,7.082-.447,8.322-.341,12.514-.575,21.021.226A13.327,13.327,0,0,1,154.747,325.812Z" transform="translate(-72.242 -240.533)" fill="#3c2516"/>
      <path id="Caminho_75" data-name="Caminho 75" d="M191.633,63.276h-.939c-6.275.138-10.143,2.005-11,5.794-1.136,5.105,1.948,8.424,5.568,11.284,2.939,2.325,2.926,3.188-.356,5.157-3.8,2.283-9.362,2.166-12.621-.661-3.755-3.243-6.047-7.3-4.9-12.5.866-3.924,3.334-6.884,6.45-9.24,2.845-2.153,5.867-4.078,8.842-6.067,6.47-4.346,8.265-10.361,5.214-17.583A20.664,20.664,0,0,0,175.969,28.2c-2.122-.85-1.82-1.462-.52-2.819,8.192-8.694,23.884-8.7,32.157-.073,1.732,1.8,1.014,2.263-.809,3.038-6.179,2.629-10.712,6.894-12.421,13.612-1.407,5.526-.289,10.327,4.2,14.181,4.741,4.075,10.075,7.474,14.218,12.223,4.268,4.894,4.314,8.811.375,14.14a11.289,11.289,0,0,1-13.7,3.641,11.962,11.962,0,0,1-2.289-1.371c-1.854-1.371-2.759-2.6.094-4.075a12.728,12.728,0,0,0,4.988-5.2c3.025-5.316,1.142-9.883-4.738-11.516A17.872,17.872,0,0,0,191.633,63.276Z" transform="translate(-123.639 -13.94)" fill="#fdc44d"/>
      <path id="Caminho_76" data-name="Caminho 76" d="M317.26,234.124c7.063-1.092,11.443-5.43,13.588-11.934.97-2.934,2.46-4.083,5.461-3.667a14.7,14.7,0,0,0,12.592-3.833,11.779,11.779,0,0,1,6-3.181c4.054-.871,7.742.468,9.682,3.641,1.854,3.027,1.488,6.816-1.173,9.882-1.066,1.233-1.9,1.846-.273,3.547,3.178,3.316,3.4,7.167,1.212,10.439-2.081,3.121-6.119,4.39-10.228,3.152a17.465,17.465,0,0,1-5.633-3.17,19.422,19.422,0,0,0-7.464-3.6c-6.665.185-13.334.179-20,.088C319.715,235.474,317.866,236.324,317.26,234.124Z" transform="translate(-234.752 -156.306)" fill="#fefefe"/>
      <path id="Caminho_77" data-name="Caminho 77" d="M42.84,235.5a15.36,15.36,0,0,0-7.766,3.571,13.766,13.766,0,0,1-7.958,3.334c-3.662.127-6.5-1.191-8.135-4.543a7.48,7.48,0,0,1,1.246-8.866c1.576-1.683,1.849-2.577.047-4.421-2.66-2.715-2.939-6.218-.983-9.529s5.123-4.421,8.866-3.9a12.507,12.507,0,0,1,6.5,3.009,15.982,15.982,0,0,0,12.657,4.192c3.074-.3,4.762.9,5.836,4.049,2.156,6.33,6.546,10.512,13.438,11.56-.348,1.846-1.865,1.384-2.993,1.384C56.684,235.347,49.761,235.773,42.84,235.5Z" transform="translate(-13.334 -156.137)" fill="#fefefe"/>
      <path id="Caminho_78" data-name="Caminho 78" d="M113.46,297.81c5.638-1.4,11.37-.221,17.04-.64,2.242-.166,4.582.627,6.72-.635h3.922a12.955,12.955,0,0,0,3.729-.169,32.113,32.113,0,0,1,13.958,0,13.236,13.236,0,0,0,3.732.172h3.9c4.091,1.358,8.309.294,12.452.648,3.763.323,8.322-.731,12.033.606.421.289-.029.294-3.043.291a6.5,6.5,0,0,1-2.642.26H116.9a6.22,6.22,0,0,1-2.64-.26Z" transform="translate(-83.953 -218.72)" fill="#fff"/>
      <path id="Caminho_79" data-name="Caminho 79" d="M241.319,285.439a71.677,71.677,0,0,1-21.419,0c4.385-.3,7.784-5.108,10.842-4.84C233.894,280.875,237.124,284.955,241.319,285.439Z" transform="translate(-162.712 -207.613)" fill="#faf9f9"/>
      <path id="Caminho_80" data-name="Caminho 80" d="M116.52,305.14h73.648c-1.113.889-2.434.629-3.688.629q-33.138.016-66.275,0C118.952,305.769,117.63,306.032,116.52,305.14Z" transform="translate(-86.218 -225.78)" fill="#37250e"/>
      <path id="Caminho_81" data-name="Caminho 81" d="M121,387.449c1.716-3.7,3.243-7.49,4.7-11.3.554-1.441,1.264-1.56,2.616-1.217a104.017,104.017,0,0,0,28.88,2.793v18.431c-11.7-.278-23.258-1.625-34.279-6C121.8,389.7,119.917,389.782,121,387.449Z" transform="translate(-89.292 -277.302)" fill="#fdfefd"/>
      <path id="Caminho_82" data-name="Caminho 82" d="M297.346,387.449c-1.716-3.7-3.243-7.49-4.7-11.3-.551-1.441-1.264-1.56-2.616-1.217a104.019,104.019,0,0,1-28.867,2.793v18.431c11.7-.278,23.258-1.625,34.279-6C296.558,389.7,298.427,389.782,297.346,387.449Z" transform="translate(-193.242 -277.302)" fill="#fdfefd"/>
      <path id="Caminho_83" data-name="Caminho 83" d="M157.12,347.4a127.113,127.113,0,0,1,54.115.016A127.692,127.692,0,0,1,157.12,347.4Z" transform="translate(-116.259 -254.902)" fill="#fcfcfc"/>
      <path id="Caminho_85" data-name="Caminho 85" d="M250.015,210.156c0,1.118-2.723,2.026-6.078,2.026s-6.078-.908-6.078-2.026,2.72-2.026,6.078-2.026,6.078.908,6.078,2.026" transform="translate(-176.001 -153.999)" fill="#fff"/>
      <circle id="Elipse_16" data-name="Elipse 16" cx="3.1" cy="3.1" r="3.1" transform="translate(50.718 28.489)" fill="#f4f2f0"/>
      <circle id="Elipse_17" data-name="Elipse 17" cx="3.1" cy="3.1" r="3.1" transform="translate(78.88 28.489)" fill="#f4f2f0"/>
      <rect id="Retângulo_33" data-name="Retângulo 33" width="0.536" height="0.268" transform="matrix(0.994, 0.113, -0.113, 0.994, 106.726, 79.012)" fill="#fff"/>
      <text id="PET_STORE" data-name="PET STORE" transform="translate(20.454 150.138)" fill="#3c2417" font-size="18" font-family="Linotte-Bold" font-weight="700"><tspan x="0" y="0">PE</tspan><tspan y="0" letter-spacing="-0.03em">T </tspan><tspan y="0" letter-spacing="-0.02em">S</tspan><tspan y="0" letter-spacing="-0.01em">T</tspan><tspan y="0">ORE</tspan></text>
      <rect id="Retângulo_35" data-name="Retângulo 35" width="2" height="19" transform="translate(67 100)" fill="#fff"/>
      <text id="RAÇÕES" transform="translate(31.343 169.195)" fill="#3c2417" font-size="10" font-family="Helvetica" letter-spacing="0.4em"><tspan x="0" y="0">RAÇÕES</tspan></text>
      <path id="Caminho_84" data-name="Caminho 84" d="M223.854,400.985a10.843,10.843,0,0,1,.78,1.149,2.565,2.565,0,0,1-2.341,3.852,3.256,3.256,0,0,1-1.989-.59c-1.82-1.672-3.974-1.742-6.255-1.722-6.65.065-13.3.052-19.952,0a5.849,5.849,0,0,0-3.815,1.209,6.034,6.034,0,0,1-2.008,1.019,2.5,2.5,0,0,1-2.949-1.025,2.6,2.6,0,0,1,.107-3.134c.172-.247.367-.476.575-.744-.2-.26-.39-.486-.564-.733a2.645,2.645,0,0,1-.135-3.134,2.593,2.593,0,0,1,2.949-1.053,4.515,4.515,0,0,1,1.763.83,6.5,6.5,0,0,0,4.231,1.451c.577,0,20.7-.078,21.284-.07,4.421.06-14.114,4.06-10.608,1.3,1.3.541,3.121-1.113,4.356-.884,2.25.416-2.081,3.625-1.207,1.285.5-1.35,6.78-1.719,8.13-1.766a9.739,9.739,0,0,0,3.095-1c.551-.224,1-.7,1.56-.939a2.875,2.875,0,0,1,3.592.713,2.713,2.713,0,0,1-.231,3.506c-.125.156-.242.317-.359.471" transform="translate(-136.776 -292.989)" fill="#3b2415"/>
    </g>
  </g>
</svg>
