<svg xmlns="http://www.w3.org/2000/svg" width="32.325" height="29.291" viewBox="0 0 32.325 29.291">
  <g id="pet-store-logo" transform="translate(-0.022 -116.217)">
    <path id="Caminho_112" data-name="Caminho 112" d="M3183.729,90.119a3.447,3.447,0,0,0-1.23.761,4.035,4.035,0,0,1-3.107.757,3.031,3.031,0,0,1-2.194-4.223,1.052,1.052,0,0,0,.074-1.006,2.889,2.889,0,0,1,.434-3.4,3.116,3.116,0,0,1,3.335-.9,4.885,4.885,0,0,1,1.691.872c.219.165.443.323.676.467a1.047,1.047,0,0,0,1.03.2c.385-.215-.156-.581.015-.881a2.62,2.62,0,0,0,2.845-2.037c.654-1.975.09-3.927-.241-5.883-.6-.3-.168,1.005-.116,1.5a14.378,14.378,0,0,1,.131,3.457,3.466,3.466,0,0,1-.257.962c-.793,1.744-1.846,2.009-3.394.874-.172-.124-.336-.263-.5-.4-2.3-1.928-2.391-3.522-.3-5.669.658-.675,1.34-1.33,2.048-1.952a2.827,2.827,0,0,1,1.936-.929,2.737,2.737,0,0,0,2.163-1.01,6.479,6.479,0,0,1,9.12.47,1.136,1.136,0,0,0,1.165.487.777.777,0,0,1,.182,0c1.828.062,5.6,3.614,5.781,5.439a2.692,2.692,0,0,1-.545,1.886,7.342,7.342,0,0,1-2.3,2.05,1.631,1.631,0,0,1-2.44-.57,4.2,4.2,0,0,1-.7-2.863c.062-.971.19-1.938.27-2.91.023-.273.152-.578-.047-.817-.221,0-.282.1-.3.222a27.5,27.5,0,0,0-.372,4.179,4.351,4.351,0,0,0,.874,2.546,2.129,2.129,0,0,0,2.136.954c.236.347-.312.671.026.877a1.033,1.033,0,0,0,1.041-.13c.6-.359,1.142-.824,1.765-1.131a3.29,3.29,0,0,1,3.552.2,2.629,2.629,0,0,1,1.182,2.865,6.606,6.606,0,0,0,0,2.849c.376,2.326-1.835,3.985-4.178,3.259a3.82,3.82,0,0,1-1.369-.712,3.121,3.121,0,0,0-1.764-.805l-.162-.03c-.109-.022-.217-.043-.327-.062-5.643-.062-11.287-.02-16.928-.022a1.2,1.2,0,0,0-.434.1,2.523,2.523,0,0,1-.261.11Z" transform="translate(-3176.89 46.19)" fill="#a7a7a7"/>
    <path id="Caminho_113" data-name="Caminho 113" d="M3288.122,395.358a23.777,23.777,0,0,1,3.323.574,2.026,2.026,0,0,1,1.467,1.346c.513,1.4,1.094,2.773,1.715,4.127.273.6.12.833-.433,1.073a24.378,24.378,0,0,1-11.7,1.777,22.105,22.105,0,0,1-7.416-1.781c-.569-.252-.681-.5-.412-1.077.619-1.353,1.207-2.725,1.717-4.124a2.045,2.045,0,0,1,1.467-1.343,18.583,18.583,0,0,1,3.136-.564c1.356-.09,1.194-.107,1.686-.107a30.83,30.83,0,0,1,5.006.053A2.456,2.456,0,0,1,3288.122,395.358Z" transform="translate(-3268.456 -258.831)" fill="#a7a7a7"/>
    <path id="Caminho_114" data-name="Caminho 114" d="M3349.828,99.47h-.224c-1.494.033-2.415.477-2.618,1.379-.271,1.216.464,2.006,1.326,2.688.7.553.7.759-.085,1.228a2.7,2.7,0,0,1-3.005-.158,2.947,2.947,0,0,1-1.166-2.977,3.8,3.8,0,0,1,1.536-2.2c.678-.513,1.4-.971,2.105-1.445a3.124,3.124,0,0,0,1.239-4.187,4.891,4.891,0,0,0-2.839-2.681c-.505-.2-.434-.347-.124-.671a5.512,5.512,0,0,1,7.657-.017c.413.43.242.538-.192.723a4.717,4.717,0,0,0-2.956,3.242,3.108,3.108,0,0,0,1,3.377,30.848,30.848,0,0,1,3.385,2.91,2.3,2.3,0,0,1,.089,3.367,2.689,2.689,0,0,1-3.261.867,2.879,2.879,0,0,1-.545-.327c-.442-.326-.656-.619.022-.97a3.029,3.029,0,0,0,1.188-1.238,1.707,1.707,0,0,0-1.128-2.742A4.273,4.273,0,0,0,3349.828,99.47Z" transform="translate(-3333.617 28.495)" fill="#fff"/>
    <path id="Caminho_115" data-name="Caminho 115" d="M3494.16,286.745a3.875,3.875,0,0,0,3.235-2.841c.231-.7.586-.973,1.3-.873a3.5,3.5,0,0,0,3-.913,2.8,2.8,0,0,1,1.428-.758,2.075,2.075,0,0,1,2.305.867,1.953,1.953,0,0,1-.279,2.353c-.254.294-.452.44-.065.845a1.882,1.882,0,0,1,.289,2.486,2.119,2.119,0,0,1-2.436.751,4.158,4.158,0,0,1-1.342-.755,4.636,4.636,0,0,0-1.777-.857c-1.587.044-3.174.043-4.761.021C3494.744,287.067,3494.3,287.269,3494.16,286.745Z" transform="translate(-3474.493 -151.998)" fill="#fefefe"/>
    <path id="Caminho_116" data-name="Caminho 116" d="M3200.8,286.89a3.656,3.656,0,0,0-1.849.851,3.27,3.27,0,0,1-1.9.793,1.891,1.891,0,0,1-1.937-1.082,1.781,1.781,0,0,1,.3-2.111c.375-.4.44-.613.011-1.053a1.773,1.773,0,0,1-.234-2.268,1.946,1.946,0,0,1,2.111-.929,2.978,2.978,0,0,1,1.552.714,3.808,3.808,0,0,0,3.014,1,1.182,1.182,0,0,1,1.389.964,3.832,3.832,0,0,0,3.2,2.753c-.084.44-.444.329-.714.33C3204.1,286.854,3202.455,286.956,3200.8,286.89Z" transform="translate(-3193.758 -151.775)" fill="#fefefe"/>
    <path id="Caminho_117" data-name="Caminho 117" d="M3290.35,366.175a23.571,23.571,0,0,1,4.057-.152c.534-.04,1.091.149,1.6-.151h.933a3.063,3.063,0,0,0,.888-.04,7.647,7.647,0,0,1,3.323,0,3.131,3.131,0,0,0,.889.04h.929a12.347,12.347,0,0,0,2.964.155,11.417,11.417,0,0,1,2.865.144c.1.069-.007.07-.724.069a1.546,1.546,0,0,1-.629.059h-16.278a1.483,1.483,0,0,1-.629-.062Z" transform="translate(-3283.304 -231.125)" fill="#fff"/>
    <path id="Caminho_118" data-name="Caminho 118" d="M3401.891,351.794a17.068,17.068,0,0,1-5.1,0c1.044-.072,1.854-1.216,2.581-1.152C3400.123,350.707,3400.89,351.678,3401.891,351.794Z" transform="translate(-3383.153 -217.045)" fill="#faf9f9"/>
    <path id="Caminho_119" data-name="Caminho 119" d="M3293.41,375.19h17.536a1.273,1.273,0,0,1-.878.15q-7.891,0-15.781,0A1.265,1.265,0,0,1,3293.41,375.19Z" transform="translate(-3286.175 -240.076)" fill="#a7a7a7"/>
    <path id="Caminho_120" data-name="Caminho 120" d="M3297.518,448.841c.409-.881.772-1.784,1.12-2.691.132-.343.3-.372.623-.29a24.777,24.777,0,0,0,6.876.666v4.385a23.332,23.332,0,0,1-8.162-1.429C3297.706,449.375,3297.26,449.4,3297.518,448.841Z" transform="translate(-3289.955 -306.333)" fill="#fdfefd"/>
    <path id="Caminho_121" data-name="Caminho 121" d="M3446.546,448.841c-.409-.881-.772-1.784-1.12-2.691-.131-.343-.3-.372-.623-.29a24.755,24.755,0,0,1-6.874.666v4.385a23.334,23.334,0,0,0,8.162-1.429C3446.356,449.375,3446.8,449.4,3446.546,448.841Z" transform="translate(-3421.745 -306.333)" fill="#fdfefd"/>
    <path id="Caminho_122" data-name="Caminho 122" d="M259.42,503.383l.094,0,.093,0v4.379l-.089,0-.1,0Z" transform="translate(-243.335 -363.188)" fill="#fdfefd"/>
    <path id="Caminho_123" data-name="Caminho 123" d="M3334,415.232a30.294,30.294,0,0,1,12.885,0A30.414,30.414,0,0,1,3334,415.232Z" transform="translate(-3324.251 -276.988)" fill="#fcfcfc"/>
    <path id="Caminho_124" data-name="Caminho 124" d="M3371.018,467.3a2.622,2.622,0,0,1,.186.274.611.611,0,0,1-.558.917.78.78,0,0,1-.474-.141,1.982,1.982,0,0,0-1.49-.409c-1.583.015-3.167.012-4.751,0a1.393,1.393,0,0,0-.908.289,1.432,1.432,0,0,1-.478.242.594.594,0,0,1-.7-.244.613.613,0,0,1,.026-.743c.04-.058.087-.113.136-.176-.047-.062-.093-.116-.134-.175a.63.63,0,0,1-.032-.747.615.615,0,0,1,.7-.248,1.072,1.072,0,0,1,.42.2,1.541,1.541,0,0,0,1,.344c.137,0,4.928-.019,5.068-.017,1.053.014-3.361.967-2.526.31.31.129.743-.265,1.037-.211.535.1-.5.863-.287.307.119-.322,1.615-.41,1.936-.421a2.331,2.331,0,0,0,.737-.237c.132-.054.239-.167.372-.224a.685.685,0,0,1,.855.17.646.646,0,0,1-.055.835c-.03.037-.057.076-.085.112" transform="translate(-3350.264 -325.369)" fill="#a7a7a7"/>
    <path id="Caminho_125" data-name="Caminho 125" d="M3417.645,278.7c0,.267-.648.482-1.447.482s-1.447-.216-1.447-.482.648-.482,1.447-.482,1.447.216,1.447.482" transform="translate(-3400 -149.111)" fill="#fff"/>
    <circle id="Elipse_20" data-name="Elipse 20" cx="0.738" cy="0.738" r="0.738" transform="translate(12.097 123.001)" fill="#f4f2f0"/>
    <circle id="Elipse_21" data-name="Elipse 21" cx="0.738" cy="0.738" r="0.738" transform="translate(18.803 123.001)" fill="#f4f2f0"/>
    <rect id="Retângulo_36" data-name="Retângulo 36" width="0.128" height="0.064" transform="matrix(0.994, 0.113, -0.113, 0.994, 25.433, 135.024)" fill="#fff"/>
  </g>
</svg>
