<svg xmlns="http://www.w3.org/2000/svg" width="522.019" height="472.947" viewBox="0 0 522.019 472.947">
  <g id="Camada_2" data-name="Camada 2" transform="translate(-0.001 0.014)">
    <g id="Layer_1" data-name="Layer 1">
      <path id="Caminho_741" data-name="Caminho 741" d="M110.09,324.43c-8.1,1.7-13.51,7.78-19.86,12.28C75.08,347.46,58.47,352,40.05,348.94,9.4,343.79-8,310.46,4.61,280.75,6.94,275.26,9,271,5.81,264.5c-9.39-19.44-7.63-38.6,7-54.89,14.46-16.12,33-20,53.86-14.54,10.21,2.7,19,7.85,27.3,14.09,3.54,2.65,7.16,5.22,10.91,7.54,5.14,3.17,11.34,6.21,16.64,3.24,6.22-3.47-2.53-9.39.23-14.22,23.76.24,38-9,46-32.9,10.56-31.89,1.46-63.43-3.89-95-9.68-4.9-2.71,16.22-1.88,24.23,1.92,18.58,4.7,37.12,2.12,55.82a56.61,56.61,0,0,1-4.15,15.53c-12.81,28.14-29.82,32.41-54.81,14.09-2.78-2-5.43-4.24-8.07-6.45-37.13-31.14-38.6-56.88-4.84-91.55C102.78,78.61,113.8,68,125.23,58c8.92-7.84,19.42-15.88,31.26-15,15.78,1.2,24.52-7,34.93-16.32a104.63,104.63,0,0,1,147.27,7.6c5.56,6.06,10.65,9.66,18.81,7.87a12.11,12.11,0,0,1,2.95,0c29.52,1,90.47,58.36,93.36,87.83,1.11,11.35-2.27,21.42-8.8,30.45a118.69,118.69,0,0,1-37.2,33.11c-16.24,9.41-28.14,6.14-39.39-9.2-10.21-13.94-12.35-29.8-11.34-46.24,1-15.69,3.06-31.3,4.35-47,.37-4.42,2.45-9.33-.76-13.19-3.57-.08-4.55,1.53-4.81,3.59-2.84,22.42-6.6,44.76-6,67.48A70.34,70.34,0,0,0,364,190.11c8.89,12,20.41,17.6,34.49,15.41,3.81,5.6-5.05,10.83.43,14.17,5.17,3.15,11.74.94,16.81-2.1,9.68-5.8,18.45-13.31,28.5-18.26,19.38-9.54,39.18-9.72,57.35,3.2,15.77,11.21,23.83,27.72,19.09,46.26-4.09,16-2.6,30.09,0,46,6.08,37.55-29.63,64.35-67.47,52.63-8.05-2.5-15.71-6.05-22.11-11.5-8.35-7.1-17.49-12-28.48-13l-2.62-.49c-1.76-.36-3.51-.71-5.28-1-91.14-1-182.27-.31-273.38-.34a18.849,18.849,0,0,0-7,1.59Q112.24,323.6,110.09,324.43Z" fill="#3c2417"/>
      <path id="Caminho_742" data-name="Caminho 742" d="M317.25,327.9c18,2.55,36.11,4.18,53.67,9.27,11.59,3.36,19.28,9.7,23.69,21.72,8.28,22.57,17.67,44.79,27.69,66.65,4.41,9.61,1.94,13.44-7,17.33-60.5,26.33-123.88,33.44-189,28.69-41.44-3-81.53-11.85-119.76-28.75-9.2-4.07-11-8-6.66-17.39,10-21.85,19.49-44,27.72-66.61,4.41-12.09,12.19-18.17,23.69-21.69,16.55-5.06,33.84-7,50.64-9.11,21.89-1.44,19.28-1.72,27.23-1.72,32-1.31,48.12-2.21,80.83.87C311.52,327.3,316,327.44,317.25,327.9Z" fill="#3c2516"/>
      <path id="Caminho_743" data-name="Caminho 743" d="M261.45,189.69h-3.61c-24.13.53-39,7.71-42.28,22.28-4.37,19.63,7.49,32.39,21.41,43.39,11.3,8.94,11.25,12.26-1.37,19.83-14.63,8.78-36,8.33-48.53-2.54-14.44-12.47-23.25-28.06-18.83-48.08,3.33-15.09,12.82-26.47,24.8-35.53,10.94-8.28,22.56-15.68,34-23.33,24.88-16.71,31.78-39.84,20.05-67.61C238.13,77,222,63.12,201.22,54.8c-8.16-3.27-7-5.62-2-10.84,31.5-33.43,91.84-33.45,123.65-.28,6.66,6.94,3.9,8.7-3.11,11.68C296,65.47,278.57,81.87,272,107.7c-5.41,21.25-1.11,39.71,16.14,54.53,18.23,15.67,38.74,28.74,54.67,47,16.41,18.82,16.59,33.88,1.44,54.37a43.41,43.41,0,0,1-52.66,14,46,46,0,0,1-8.8-5.27c-7.13-5.27-10.61-10,.36-15.67,8.29-4.32,14.47-11.7,19.18-20,11.63-20.44,4.39-38-18.22-44.28a68.719,68.719,0,0,0-22.66-2.69Z" fill="#fdc44d"/>
      <path id="Caminho_744" data-name="Caminho 744" d="M317.26,299.21c27.16-4.2,44-20.88,52.25-45.89,3.73-11.28,9.46-15.7,21-14.1,17.64,2.46,35.88-2.08,48.42-14.74A45.29,45.29,0,0,1,462,212.25c15.59-3.35,29.77,1.8,37.23,14,7.13,11.64,5.72,26.21-4.51,38-4.1,4.74-7.31,7.1-1.05,13.64,12.22,12.75,13.06,27.56,4.66,40.14-8,12-23.53,16.88-39.33,12.12-8.08-2.44-15-7-21.66-12.19-8.54-6.68-17.08-10.76-28.7-13.84-25.63.71-51.27.69-76.89.34C326.7,304.4,319.59,307.67,317.26,299.21Z" fill="#fefefe"/>
      <path id="Caminho_745" data-name="Caminho 745" d="M113.46,305.14c-11.73,1.33-20.88,6.82-29.86,13.73S64.89,331.27,53,331.69c-14.08.49-25-4.58-31.28-17.47-5.89-12.2-4.38-24.31,4.79-34.09,6.06-6.47,7.11-9.91.18-17-10.23-10.44-11.3-23.91-3.78-36.64s19.7-17,34.09-15a48.09,48.09,0,0,1,25,11.57c14.06,12.33,30,18,48.67,16.12,11.82-1.17,18.31,3.45,22.44,15.57,8.29,24.34,25.17,40.42,51.67,44.45-1.34,7.1-7.17,5.32-11.51,5.32C166.69,304.56,140.07,306.2,113.46,305.14Z" fill="#fefefe"/>
      <path id="Caminho_746" data-name="Caminho 746" d="M113.46,304.1c21.68-5.38,43.72-.85,65.52-2.46,8.62-.64,17.62,2.41,25.84-2.44H219.9c7.14.24,9.73.36,14.34-.65a123.48,123.48,0,0,1,53.67,0c4.62,1,8,.93,14.35.66h15c15.73,5.22,31.95,1.13,47.88,2.49,14.47,1.24,32-2.81,46.27,2.33,1.62,1.11-.11,1.13-11.7,1.12-3.29,1.4-6.75,1-10.16,1H126.67c-3.41,0-6.88.46-10.15-1Z" fill="#fff"/>
      <path id="Caminho_747" data-name="Caminho 747" d="M302.26,299.24a275.61,275.61,0,0,1-82.36,0c16.86-1.16,29.93-19.64,41.69-18.61C273.71,281.69,286.13,297.38,302.26,299.24Z" fill="#faf9f9"/>
      <path id="Caminho_748" data-name="Caminho 748" d="M116.52,305.14H399.71c-4.28,3.42-9.36,2.42-14.18,2.42q-127.42.06-254.84,0C125.87,307.56,120.79,308.57,116.52,305.14Z" fill="#37250e"/>
      <path id="Caminho_749" data-name="Caminho 749" d="M260.66,455c-45.08-1.08-89.17-6.57-131.58-22.68-8.5-3.23-10.15-6.35-6.32-14.5,6.46-13.75,8.4-32,18.69-40.9,10.83-9.34,27.67,3,42.13,4.16,63.35,5.26,126.56,8.4,189-7.66,5.19-1.34,7.93-.86,10.05,4.68,5.62,14.65,11.48,29.23,18.08,43.45,4.17,9-3,8.64-7.38,10.36C350.68,448.8,306,453.94,260.66,455Z" fill="#fdfefd"/>
      <path id="Caminho_750" data-name="Caminho 750" d="M157.12,355.67C226.75,341,296,340.53,365.2,355.73a491,491,0,0,1-208.08-.06Z" fill="#fcfcfc"/>
      <path id="Caminho_751" data-name="Caminho 751" d="M334.83,415.25a41.7,41.7,0,0,1,3,4.42c3.66,7.07-1,15-9,14.81-2.6-.06-5.87-.64-7.65-2.27-7-6.43-15.28-6.7-24.05-6.62-25.57.25-51.15.2-76.72,0a22.49,22.49,0,0,0-14.67,4.65,23.2,23.2,0,0,1-7.72,3.92c-4.48,1.26-8.65.13-11.34-3.94s-2.3-8.13.41-12.05c.66-.95,1.41-1.83,2.21-2.86-.76-1-1.5-1.87-2.17-2.82-2.72-3.9-3.08-8-.52-12.05s6.88-5.05,11.34-4.05a17.359,17.359,0,0,1,6.78,3.19A25,25,0,0,0,221,405.16c2.22,0,79.58-.3,81.84-.27,17,.23-54.27,15.61-40.79,5,5,2.08,12-4.28,16.75-3.4,8.65,1.6-8,13.94-4.64,4.94,1.92-5.19,26.07-6.61,31.26-6.79,4-.14,8-2.26,11.9-3.84,2.12-.86,3.86-2.68,6-3.61,5.38-2.35,11.09-1.23,13.81,2.74,3.18,4.63,2.54,9.19-.89,13.48-.48.6-.93,1.22-1.38,1.81" fill="#3b2415"/>
      <path id="Caminho_752" data-name="Caminho 752" d="M284.6,215.92c0,4.3-10.47,7.79-23.37,7.79s-23.37-3.49-23.37-7.79,10.46-7.79,23.37-7.79,23.37,3.49,23.37,7.79" fill="#fff"/>
      <circle id="Elipse_111" data-name="Elipse 111" cx="11.92" cy="11.92" r="11.92" transform="translate(195.02 109.53)" fill="#f4f2f0"/>
      <circle id="Elipse_112" data-name="Elipse 112" cx="11.92" cy="11.92" r="11.92" transform="translate(303.31 109.53)" fill="#f4f2f0"/>
      <rect id="Retângulo_1688" data-name="Retângulo 1688" width="2.06" height="1.03" transform="matrix(0.994, 0.113, -0.113, 0.994, 410.384, 303.799)" fill="#fff"/>
    </g>
  </g>
</svg>
