<svg xmlns="http://www.w3.org/2000/svg" width="20.029" height="29.508" viewBox="0 0 20.029 29.508">
  <g id="location-pin" transform="translate(132.043 170)">
    <g id="Grupo_30" data-name="Grupo 30" transform="translate(-132.043 -170)">
      <path id="Caminho_110" data-name="Caminho 110" d="M88.971,0A10.026,10.026,0,0,0,78.957,10.014c0,2.219,1.306,5.594,4.111,10.62,1.914,3.43,3.819,6.327,3.9,6.449l1.377,2.087a.75.75,0,0,0,1.253,0l1.377-2.087c.08-.121,1.971-2.993,3.9-6.449,2.8-5.026,4.111-8.4,4.111-10.62A10.026,10.026,0,0,0,88.971,0Zm4.593,19.9c-1.9,3.408-3.763,6.235-3.842,6.354L88.971,27.4l-.751-1.138c-.079-.12-1.955-2.972-3.842-6.354-2.6-4.663-3.921-7.99-3.921-9.889a8.514,8.514,0,0,1,17.028,0C97.485,11.914,96.166,15.241,93.564,19.9Z" transform="translate(-78.957 0)" fill="#a7a7a7"/>
      <path id="Caminho_111" data-name="Caminho 111" d="M158.843,73.291a5.552,5.552,0,1,0,5.552,5.552A5.559,5.559,0,0,0,158.843,73.291Zm0,9.6a4.052,4.052,0,1,1,4.052-4.052A4.056,4.056,0,0,1,158.843,82.9Z" transform="translate(-148.829 -68.892)" fill="#a7a7a7"/>
    </g>
  </g>
</svg>
