<svg xmlns="http://www.w3.org/2000/svg" xmlns:xlink="http://www.w3.org/1999/xlink" width="25.264" height="48.843" viewBox="0 0 25.264 48.843">
  <defs>
    <clipPath id="clip-path">
      <path id="Caminho_62" data-name="Caminho 62" d="M3.638,0H21.626a3.638,3.638,0,0,1,3.638,3.638V45.205a3.638,3.638,0,0,1-3.638,3.638H3.638A3.638,3.638,0,0,1,0,45.205V3.638A3.638,3.638,0,0,1,3.638,0Z" transform="translate(0 87)" fill="#0bb4f5"/>
    </clipPath>
  </defs>
  <g id="Grupo_de_máscara_3" data-name="Grupo de máscara 3" transform="translate(0 -87)" clip-path="url(#clip-path)">
    <g id="done" transform="translate(0 98.79)">
      <g id="Grupo_21" data-name="Grupo 21" transform="translate(6.442 7.996)">
        <g id="Grupo_20" data-name="Grupo 20">
          <path id="Caminho_60" data-name="Caminho 60" d="M106.552,118.688l-6.114,6.227-3.133-3.145-1.68,1.68,4.939,4.926,7.933-7.693Z" transform="translate(-95.625 -118.688)" fill="#0bb4f5"/>
        </g>
      </g>
      <g id="Grupo_23" data-name="Grupo 23">
        <g id="Grupo_22" data-name="Grupo 22">
          <path id="Caminho_61" data-name="Caminho 61" d="M12.632,0A12.632,12.632,0,1,0,25.264,12.632,12.632,12.632,0,0,0,12.632,0Zm0,22.977A10.345,10.345,0,1,1,22.977,12.632,10.346,10.346,0,0,1,12.632,22.977Z" fill="#0bb4f5"/>
        </g>
      </g>
    </g>
  </g>
</svg>
