<svg xmlns="http://www.w3.org/2000/svg" width="29.735" height="37.785" viewBox="0 0 29.735 37.785">
  <g id="siberian-husky" transform="translate(-54.54)">
    <g id="Grupo_6" data-name="Grupo 6" transform="translate(54.54)">
      <g id="Grupo_5" data-name="Grupo 5" transform="translate(0)">
        <g id="Grupo_4" data-name="Grupo 4">
          <path id="Caminho_21" data-name="Caminho 21" d="M299.814,119.3a.946.946,0,1,0,.947.946A.946.946,0,0,0,299.814,119.3Z" transform="translate(-280.837 -110.492)" fill="#707070"/>
          <path id="Caminho_22" data-name="Caminho 22" d="M223.391,194.109a.791.791,0,0,0-1.08.291.661.661,0,0,1-.568.329h-.005a.662.662,0,0,1-.567-.329.79.79,0,0,0-1.37,0,.659.659,0,0,1-1.14,0,.791.791,0,1,0-1.37.789,2.241,2.241,0,0,0,1.149.975v1.942a2.047,2.047,0,0,0,4.094,0v-1.942a2.239,2.239,0,0,0,1.15-.975A.791.791,0,0,0,223.391,194.109Zm-2.441,4a.465.465,0,0,1-.929,0v-1.942a2.219,2.219,0,0,0,.465-.24,2.239,2.239,0,0,0,.464.241Z" transform="translate(-205.18 -179.686)" fill="#707070"/>
          <path id="Caminho_23" data-name="Caminho 23" d="M82.16,33.177h-.07a5.618,5.618,0,0,0-3.524-6.665V22.206a8.666,8.666,0,0,0-.6-3.177h0a9.308,9.308,0,0,0,1.243-4.7v-2l-.039-9.456A2.88,2.88,0,0,0,76.3,0h-.012a2.862,2.862,0,0,0-2.032.852L71.9,3.219a9.4,9.4,0,0,0-2.056-.226h-.04a9.319,9.319,0,0,0-2.09.245L65.345.888A2.857,2.857,0,0,0,63.319.053h-.012a2.878,2.878,0,0,0-2.867,2.89l.039,9.4V14.4a9.312,9.312,0,0,0,1.235,4.62,8.569,8.569,0,0,0-.318.974,8.779,8.779,0,0,0-.2,1l-3.15-3.151a.88.88,0,0,0-1.244,0,7.744,7.744,0,0,0,0,10.938l1,1a5.607,5.607,0,0,0-.2,3.393h-.07a2.119,2.119,0,0,0-2.116,2.116v1.055a1.438,1.438,0,0,0,1.437,1.437H82.838a1.438,1.438,0,0,0,1.437-1.437V35.293A2.119,2.119,0,0,0,82.16,33.177ZM57.469,19.754,61.113,23.4v3.121a5.651,5.651,0,0,0-2.394,1.694l-.673-.673A5.986,5.986,0,0,1,57.469,19.754Zm-.294,16.274v-.734a.359.359,0,0,1,.358-.358h1.352a.879.879,0,0,0,.772-1.3,3.837,3.837,0,0,1-.078-3.523c.035-.071.072-.142.111-.21h0a3.913,3.913,0,0,1,1.423-1.446s0,6.529,0,7.572H57.175ZM75.5,2.09a1.121,1.121,0,0,1,1.916.784l.017,3.988a9.57,9.57,0,0,0-.991-1.152,9.354,9.354,0,0,0-2.683-1.865ZM69.848,4.748h0a7.637,7.637,0,0,1,2.719.5A5.839,5.839,0,0,0,69.837,6.61a5.843,5.843,0,0,0-2.71-1.354A7.658,7.658,0,0,1,69.848,4.748ZM62.2,2.936a1.121,1.121,0,0,1,1.116-1.125h0a1.113,1.113,0,0,1,.789.325l1.762,1.748a9.439,9.439,0,0,0-3.654,3.056ZM76.807,36.027H74.42V27.705a.879.879,0,0,0-1.758,0v8.322H67.02V27.705a.879.879,0,0,0-1.758,0v8.322H62.873c0-1,0-13.822,0-13.822a7,7,0,0,1,.149-1.434c.074.081.15.159.229.237a9.3,9.3,0,0,0,6.595,2.716h.04a9.3,9.3,0,0,0,6.612-2.771c.057-.057.112-.114.166-.172a7.033,7.033,0,0,1,.146,1.423V36.027Zm.647-21.638h0a7.617,7.617,0,0,1-7.577,7.578h-.032a7.617,7.617,0,0,1-7.608-7.578V12.348a7.59,7.59,0,0,1,2.51-5.625l1.195,0h.015a4.276,4.276,0,0,1,3.276,1.529.791.791,0,0,0,1.115.1.835.835,0,0,0,.1-.1,4.271,4.271,0,0,1,3.275-1.529l1.236,0c.084.076.167.155.249.236a7.56,7.56,0,0,1,2.25,5.367V14.39Zm5.063,21.638H78.565V28.446A3.891,3.891,0,0,1,80.5,31.792a3.851,3.851,0,0,1-.469,1.843.879.879,0,0,0,.772,1.3H82.16a.359.359,0,0,1,.358.358v.734Z" transform="translate(-54.54)" fill="#707070"/>
          <path id="Caminho_24" data-name="Caminho 24" d="M200.75,121.412a.947.947,0,1,0-1.548-.73h0a.946.946,0,0,0,.849.941.956.956,0,0,0,.378-.038.946.946,0,0,0,.321-.173Z" transform="translate(-188.526 -110.899)" fill="#707070"/>
          <path id="Caminho_25" data-name="Caminho 25" d="M245.488,153.512h.786a.879.879,0,1,0,0-1.758h-.786a.879.879,0,1,0,0,1.758Z" transform="translate(-230.582 -140.555)" fill="#707070"/>
        </g>
      </g>
    </g>
    <g id="Grupo_8" data-name="Grupo 8" transform="translate(65.216 8.836)">
      <g id="Grupo_7" data-name="Grupo 7">
        <path id="Caminho_26" data-name="Caminho 26" d="M200.148,119.736a.946.946,0,1,0,.947.947A.946.946,0,0,0,200.148,119.736Z" transform="translate(-199.202 -119.736)" fill="#707070"/>
      </g>
    </g>
    <g id="Grupo_10" data-name="Grupo 10" transform="translate(72.572 8.804)">
      <g id="Grupo_9" data-name="Grupo 9">
        <path id="Caminho_27" data-name="Caminho 27" d="M299.813,119.3a.946.946,0,1,0,.947.946A.946.946,0,0,0,299.813,119.3Z" transform="translate(-298.867 -119.296)" fill="#707070"/>
      </g>
    </g>
    <g id="Grupo_12" data-name="Grupo 12" transform="translate(68.567 11.199)">
      <g id="Grupo_11" data-name="Grupo 11">
        <path id="Caminho_28" data-name="Caminho 28" d="M246.274,151.755h-.786a.879.879,0,1,0,0,1.758h.786a.879.879,0,1,0,0-1.758Z" transform="translate(-244.609 -151.755)" fill="#707070"/>
      </g>
    </g>
    <g id="Grupo_14" data-name="Grupo 14" transform="translate(66.543 14.317)">
      <g id="Grupo_13" data-name="Grupo 13">
        <path id="Caminho_29" data-name="Caminho 29" d="M223.391,194.109a.791.791,0,0,0-1.08.291.661.661,0,0,1-.568.329h-.005a.662.662,0,0,1-.567-.329.79.79,0,0,0-1.37,0,.659.659,0,0,1-1.14,0,.791.791,0,1,0-1.37.789,2.241,2.241,0,0,0,1.149.975v1.942a2.047,2.047,0,0,0,4.094,0v-1.942a2.239,2.239,0,0,0,1.15-.975A.791.791,0,0,0,223.391,194.109Zm-2.441,4a.465.465,0,0,1-.929,0v-1.942a2.219,2.219,0,0,0,.465-.24,2.239,2.239,0,0,0,.464.241Z" transform="translate(-217.183 -194.003)" fill="#707070"/>
      </g>
    </g>
  </g>
</svg>
