<svg xmlns="http://www.w3.org/2000/svg" width="34.55" height="37.785" viewBox="0 0 34.55 37.785">
  <g id="select-cat" transform="translate(-21.919)">
    <g id="Grupo_31" data-name="Grupo 31" transform="translate(26.321 8.165)">
      <g id="Grupo_30" data-name="Grupo 30" transform="translate(0)">
        <circle id="Elipse_20" data-name="Elipse 20" cx="0.843" cy="0.843" r="0.843" fill="#707070"/>
      </g>
    </g>
    <g id="Grupo_33" data-name="Grupo 33" transform="translate(29.888 11.212)">
      <g id="Grupo_32" data-name="Grupo 32">
        <path id="Caminho_104" data-name="Caminho 104" d="M135.05,153.029a.775.775,0,0,0-1.058-.292.5.5,0,0,1-.353.054.506.506,0,0,1-.376-.337h0a.775.775,0,0,0-1.475,0,.507.507,0,0,1-.377.337.5.5,0,0,1-.353-.054.776.776,0,1,0-.767,1.35,2.056,2.056,0,0,0,1.015.268,2.078,2.078,0,0,0,.423-.044,2.051,2.051,0,0,0,.794-.357,2.055,2.055,0,0,0,2.235.133A.776.776,0,0,0,135.05,153.029Z" transform="translate(-129.899 -151.919)" fill="#707070"/>
      </g>
    </g>
    <g id="Grupo_35" data-name="Grupo 35" transform="translate(37.021 8.165)">
      <g id="Grupo_34" data-name="Grupo 34" transform="translate(0)">
        <circle id="Elipse_21" data-name="Elipse 21" cx="0.843" cy="0.843" r="0.843" fill="#707070"/>
      </g>
    </g>
    <g id="Grupo_38" data-name="Grupo 38" transform="translate(21.919)">
      <g id="Grupo_37" data-name="Grupo 37" transform="translate(0)">
        <g id="Grupo_36" data-name="Grupo 36">
          <path id="Caminho_105" data-name="Caminho 105" d="M401.258,344.581a.852.852,0,0,0-.166-.026.863.863,0,0,0-.89,1.067,5.668,5.668,0,0,1-.621,4.251.861.861,0,0,0,.307,1.18.852.852,0,0,0,.436.119.861.861,0,0,0,.744-.425q.139-.236.259-.48t.222-.493q.068-.166.127-.335a7.359,7.359,0,0,0,.365-1.558q.011-.088.019-.177.017-.177.026-.355.017-.356,0-.713-.009-.179-.026-.357-.026-.268-.072-.535-.03-.178-.07-.356-.02-.089-.041-.177a.9.9,0,0,0-.2-.374q-.028-.031-.059-.059a.878.878,0,0,0-.105-.08A.861.861,0,0,0,401.258,344.581Z" transform="translate(-371.6 -319.125)" fill="#707070"/>
          <path id="Caminho_106" data-name="Caminho 106" d="M56.466,27.6c0-.016,0-.034,0-.051V10.764a3.273,3.273,0,1,0-6.546,0V17.29l-7.473-4.72a11.268,11.268,0,0,0,.661-3.761V1.791A1.791,1.791,0,0,0,40.1.48L40.076.5,37.02,3.558a9.228,9.228,0,0,0-9.011,0L24.953.5,24.931.48a1.791,1.791,0,0,0-3.012,1.311V8.808A11.707,11.707,0,0,0,25,16.6a11.11,11.11,0,0,0,2.573,2.1,15.583,15.583,0,0,0-.046,1.694A15.871,15.871,0,0,0,29.5,27.645v4.9H29.47a2.624,2.624,0,0,0-2.622,2.621v.965A1.659,1.659,0,0,0,28.5,37.785h4.464a2.592,2.592,0,0,0,2.439-1.725h.9v.019a1.708,1.708,0,0,0,1.705,1.706h9.863A8.046,8.046,0,0,0,54.35,34.5h0a7.753,7.753,0,0,0,.455-.693l.007-.01.017-.029A11.4,11.4,0,0,0,56.466,27.6Zm-30.2-12.162q-.268-.294-.511-.607l.624-.053a.863.863,0,0,0-.146-1.719l-1.52.128a10.059,10.059,0,0,1-.418-.942l1.9.252a.841.841,0,0,0,.114.007.862.862,0,0,0,.112-1.717l-2.631-.349a9.319,9.319,0,0,1-.147-1.628V1.791a.067.067,0,0,1,.066-.066.063.063,0,0,1,.04.013l3.52,3.521a.863.863,0,0,0,1.089.107,7.495,7.495,0,0,1,8.311,0,.863.863,0,0,0,1.089-.107l3.52-3.521a.063.063,0,0,1,.04-.013.067.067,0,0,1,.066.066V8.808a9.234,9.234,0,0,1-.147,1.628l-2.632.349a.862.862,0,0,0,.112,1.717,1.026,1.026,0,0,0,.115-.007l1.9-.252a9.841,9.841,0,0,1-.418.942l-1.521-.128a.863.863,0,1,0-.146,1.719l.624.053q-.243.313-.511.607a8.18,8.18,0,0,1-12.492,0ZM53.354,32.871l-.409.626a6.317,6.317,0,0,1-5.068,2.563H38.034V35.055a1.006,1.006,0,0,1,1-1.006h2.552a.863.863,0,0,0,.757-1.276,6.3,6.3,0,0,1,5.529-9.3.862.862,0,0,0,0-1.725,8.022,8.022,0,0,0-7.6,10.576H39.039a2.735,2.735,0,0,0-2.633,2.011h-.85V28.822a.862.862,0,1,0-1.725,0V35.2a.864.864,0,0,1-.862.862h-4.4v-.9a.9.9,0,0,1,.9-.9h.9a.863.863,0,0,0,.862-.862V27.652a.861.861,0,0,0-.094-.624,14.12,14.12,0,0,1-1.885-6.684c-.008-.286-.006-.573,0-.857a9.6,9.6,0,0,0,3.263.573A10.163,10.163,0,0,0,40.032,16.6a11.788,11.788,0,0,0,1.715-2.435l8.177,5.164A9.935,9.935,0,0,1,53.354,32.871ZM54.744,21.8h0a12.091,12.091,0,0,0-3.1-3.377v-7.66a1.548,1.548,0,1,1,3.1,0V21.8Z" transform="translate(-21.919)" fill="#707070"/>
        </g>
      </g>
    </g>
    <g id="Grupo_40" data-name="Grupo 40" transform="translate(26.321 8.165)">
      <g id="Grupo_39" data-name="Grupo 39" transform="translate(0)">
        <circle id="Elipse_22" data-name="Elipse 22" cx="0.843" cy="0.843" r="0.843" fill="#707070"/>
      </g>
    </g>
    <g id="Grupo_42" data-name="Grupo 42" transform="translate(29.888 11.212)">
      <g id="Grupo_41" data-name="Grupo 41">
        <path id="Caminho_107" data-name="Caminho 107" d="M135.05,153.029a.775.775,0,0,0-1.058-.292.5.5,0,0,1-.353.054.506.506,0,0,1-.376-.337h0a.775.775,0,0,0-1.475,0,.507.507,0,0,1-.377.337.5.5,0,0,1-.353-.054.776.776,0,1,0-.767,1.35,2.056,2.056,0,0,0,1.015.268,2.078,2.078,0,0,0,.423-.044,2.051,2.051,0,0,0,.794-.357,2.055,2.055,0,0,0,2.235.133A.776.776,0,0,0,135.05,153.029Z" transform="translate(-129.899 -151.919)" fill="#707070"/>
      </g>
    </g>
    <g id="Grupo_44" data-name="Grupo 44" transform="translate(37.021 8.165)">
      <g id="Grupo_43" data-name="Grupo 43" transform="translate(0)">
        <circle id="Elipse_23" data-name="Elipse 23" cx="0.843" cy="0.843" r="0.843" fill="#707070"/>
      </g>
    </g>
    <g id="SVGCleanerId_0" transform="translate(49.782 25.428)">
      <g id="Grupo_45" data-name="Grupo 45" transform="translate(0)">
        <path id="Caminho_108" data-name="Caminho 108" d="M401.878,345.209a.862.862,0,0,0-1.675.412,5.668,5.668,0,0,1-.621,4.251.861.861,0,0,0,.307,1.18.852.852,0,0,0,.436.119.861.861,0,0,0,.744-.425A7.384,7.384,0,0,0,401.878,345.209Z" transform="translate(-399.463 -344.552)" fill="#707070"/>
      </g>
    </g>
    <g id="Grupo_47" data-name="Grupo 47" transform="translate(26.321 8.165)">
      <g id="Grupo_46" data-name="Grupo 46" transform="translate(0)">
        <circle id="Elipse_24" data-name="Elipse 24" cx="0.843" cy="0.843" r="0.843" fill="#707070"/>
      </g>
    </g>
    <g id="Grupo_49" data-name="Grupo 49" transform="translate(37.021 8.165)">
      <g id="Grupo_48" data-name="Grupo 48" transform="translate(0)">
        <circle id="Elipse_25" data-name="Elipse 25" cx="0.843" cy="0.843" r="0.843" fill="#707070"/>
      </g>
    </g>
    <g id="Grupo_51" data-name="Grupo 51" transform="translate(29.888 11.212)">
      <g id="Grupo_50" data-name="Grupo 50">
        <path id="Caminho_109" data-name="Caminho 109" d="M135.05,153.029a.775.775,0,0,0-1.058-.292.5.5,0,0,1-.353.054.506.506,0,0,1-.376-.337h0a.775.775,0,0,0-1.475,0,.507.507,0,0,1-.377.337.5.5,0,0,1-.353-.054.776.776,0,1,0-.767,1.35,2.056,2.056,0,0,0,1.015.268,2.078,2.078,0,0,0,.423-.044,2.051,2.051,0,0,0,.794-.357,2.055,2.055,0,0,0,2.235.133A.776.776,0,0,0,135.05,153.029Z" transform="translate(-129.899 -151.919)" fill="#707070"/>
      </g>
    </g>
    <g id="Grupo_53" data-name="Grupo 53" transform="translate(49.782 25.428)">
      <g id="Grupo_52" data-name="Grupo 52" transform="translate(0)">
        <path id="Caminho_110" data-name="Caminho 110" d="M401.878,345.209a.862.862,0,0,0-1.675.412,5.668,5.668,0,0,1-.621,4.251.861.861,0,0,0,.307,1.18.852.852,0,0,0,.436.119.861.861,0,0,0,.744-.425A7.384,7.384,0,0,0,401.878,345.209Z" transform="translate(-399.463 -344.552)" fill="#707070"/>
      </g>
    </g>
  </g>
</svg>
