<svg xmlns="http://www.w3.org/2000/svg" width="27.166" height="29.508" viewBox="0 0 27.166 29.508">
  <g id="package_1_" data-name="package (1)" transform="translate(-18.8)">
    <path id="Caminho_109" data-name="Caminho 109" d="M45.954,6.957a.773.773,0,0,0-.075-.33.722.722,0,0,0-.5-.4L32.688.075a.753.753,0,0,0-.654,0L19.223,6.284a.75.75,0,0,0-.424.648V22.545a.742.742,0,0,0,.424.673l12.811,6.209c.006,0,.006,0,.012.006a.221.221,0,0,1,.056.025c.006,0,.012.006.025.006l.056.019c.006,0,.012.006.019.006s.044.006.062.012h.019c.025,0,.056.006.081.006a.355.355,0,0,0,.081-.006h.019a.221.221,0,0,0,.062-.012c.006,0,.012-.006.019-.006l.056-.019c.006,0,.012-.006.025-.006a.221.221,0,0,0,.056-.025c.006,0,.006,0,.012-.006L45.543,23.2a.753.753,0,0,0,.424-.673V6.975C45.954,6.969,45.954,6.963,45.954,6.957Zm-13.6-5.381L43.469,6.963,39.377,8.95,28.266,3.562Zm0,10.774L21.248,6.963l5.306-2.572L37.664,9.778ZM20.295,8.165l11.316,5.487V27.559L20.295,22.072ZM33.106,27.559V13.652l5.312-2.578V14.71a.747.747,0,1,0,1.495,0V10.345l4.546-2.2V22.047Z" transform="translate(0 0)" fill="#a7a7a7"/>
  </g>
</svg>
