<svg xmlns="http://www.w3.org/2000/svg" width="43.719" height="29.805" viewBox="0 0 43.719 29.805">
  <path id="delivery-truck" d="M35.742,640.3a4.037,4.037,0,0,0-2.849,1.175,3.956,3.956,0,0,0,0,5.662,4.053,4.053,0,0,0,2.849,1.175,4.006,4.006,0,0,0,0-8.012Zm0,6.232a2.226,2.226,0,1,1,0-4.451,2.226,2.226,0,0,1,0,4.451Zm1.033-19.576a.865.865,0,0,0-.6-.232H31.612a.893.893,0,0,0-.89.89v7.3a.893.893,0,0,0,.89.89h7.246a.893.893,0,0,0,.89-.89V630.03a.891.891,0,0,0-.294-.659Zm1.193,7.068H32.5V628.5h3.329l2.137,1.923ZM14,640.3a4.037,4.037,0,0,0-2.849,1.175,3.956,3.956,0,0,0,0,5.662A4.053,4.053,0,0,0,14,648.315a4.006,4.006,0,0,0,0-8.012Zm0,6.232a2.226,2.226,0,1,1,0-4.451,2.226,2.226,0,0,1,0,4.451ZM8.065,641.4H6.276V639.03a.89.89,0,0,0-1.78,0v3.258a.893.893,0,0,0,.89.89h2.68a.89.89,0,1,0,0-1.78Zm4.513-4.852a.893.893,0,0,0-.89-.89H.89a.89.89,0,0,0,0,1.78h10.8A.887.887,0,0,0,12.579,636.546ZM2.7,633.332l10.8.062a.9.9,0,0,0,.9-.881.882.882,0,0,0-.881-.9l-10.8-.062H2.706a.89.89,0,0,0-.009,1.78Zm1.816-4.042h10.8a.89.89,0,0,0,0-1.78H4.513a.89.89,0,0,0,0,1.78Zm38.876-1.2h0l-6.374-5.279a.877.877,0,0,0-.57-.2h-7.5v-3.2a.893.893,0,0,0-.89-.89H5.386a.893.893,0,0,0-.89.89v6.516a.89.89,0,1,0,1.78,0V620.29h20.9V641.4h-7.3a.89.89,0,1,0,0,1.78h10.87a.89.89,0,1,0,0-1.78H28.959V624.385h7.175l5.8,4.807-.062,12.187H40.95a.89.89,0,0,0,0,1.78h1.807a.885.885,0,0,0,.89-.881l.071-13.5A.94.94,0,0,0,43.389,628.089Z" transform="translate(0 -618.51)" fill="#a7a7a7"/>
</svg>
